<svg width="24" height="24" viewBox="0 0 24 24" fill="none" xmlns="http://www.w3.org/2000/svg">

<path d="M11.9912 0V3C16.9618 3 20.9912 7.02939 20.9912 12C20.9912 16.971 16.9618 21 11.9912 21C7.02061 21 2.99121 16.971 2.99121 12C2.99121 10.392 3.41891 8.8298 4.20991 7.4688C4.48751 6.9913 5.10751 6.8475 5.58491 7.12499C6.06241 7.40249 6.20631 8.02249 5.92871 8.49999C5.31391 9.55769 4.99121 10.748 4.99121 12C4.99121 15.866 8.12521 19 11.9912 19C15.8572 19 18.9912 15.866 18.9912 12C18.9912 8.13399 15.8572 5 11.9912 5V7.99999L7.99121 4L11.9912 0Z" fill="black"/>
</svg>
