<svg width="24" height="24" viewBox="0 0 24 24" fill="none" xmlns="http://www.w3.org/2000/svg">
<path d="M4.97656 4.99731C2.76756 4.99731 0.976562 6.78821 0.976562 8.99731V14.9973C0.976562 17.2063 2.76756 18.9973 4.97656 18.9973H18.9766C21.1856 18.9973 22.9766 17.2063 22.9766 14.9973V8.99731C22.9766 6.78821 21.1856 4.99731 18.9766 4.99731H4.97656ZM5.78856 6.99731H18.1646C18.5296 8.38651 19.5876 9.44441 20.9766 9.80981V14.1853C19.5876 14.5503 18.5296 15.6083 18.1646 16.9973H5.78856C5.42356 15.6083 4.36556 14.5503 2.97656 14.1853V9.80981C4.36556 9.44441 5.42356 8.38651 5.78856 6.99731ZM11.9766 8.99731C10.3196 8.99731 8.97656 10.3403 8.97656 11.9973C8.97656 13.6543 10.3196 14.9973 11.9766 14.9973C13.6336 14.9973 14.9766 13.6543 14.9766 11.9973C14.9766 10.3403 13.6336 8.99731 11.9766 8.99731ZM11.9766 10.9973C12.5286 10.9973 12.9766 11.4453 12.9766 11.9973C12.9766 12.5493 12.5286 12.9973 11.9766 12.9973C11.4246 12.9973 10.9766 12.5493 10.9766 11.9973C10.9766 11.4453 11.4246 10.9973 11.9766 10.9973Z" fill="black"/>
</svg>
