<svg width="24" height="24" viewBox="0 0 24 24" fill="none" xmlns="http://www.w3.org/2000/svg">
<path d="M12.0142 1.9989C6.49116 1.9989 2.01416 6.47589 2.01416 11.9989C2.01416 17.5219 6.49116 21.9989 12.0142 21.9989C17.5372 21.9989 22.0142 17.5219 22.0142 11.9989C22.0142 6.47589 17.5372 1.9989 12.0142 1.9989ZM16.0142 8.99889C16.2702 8.99889 16.5372 9.0849 16.7332 9.2799C17.1232 9.6709 17.1232 10.3269 16.7332 10.7179L12.9832 14.4369C11.8322 15.5869 10.0732 15.4149 9.17017 14.0609L8.17017 12.5609C7.86417 12.1019 7.99215 11.4619 8.45215 11.1549C8.91115 10.8489 9.55115 10.9769 9.85815 11.4369L10.8582 12.9369C11.0602 13.2399 11.3192 13.2879 11.5762 13.0299L15.2952 9.2799C15.4912 9.0849 15.7582 8.99889 16.0142 8.99889Z" fill="black"/>
</svg>
