<svg width="24" height="24" viewBox="0 0 24 24" fill="none" xmlns="http://www.w3.org/2000/svg">
<path d="M12.0422 1.9989C6.50418 1.9989 2.01416 6.47489 2.01416 11.9969C2.01416 17.5189 6.50418 21.9959 12.0422 21.9959C14.7452 21.9959 17.2872 20.9299 19.1562 19.0589C19.5472 18.6669 19.5492 18.0419 19.1562 17.6529C18.7642 17.2629 18.1372 17.2609 17.7462 17.6529C16.2502 19.1509 14.2062 19.9959 12.0422 19.9959C7.61218 19.9959 4.02017 16.4149 4.02017 11.9969C4.02017 7.57989 7.61218 3.9989 12.0422 3.9989C12.5962 3.9989 13.0452 3.5509 13.0452 2.9989C13.0452 2.4469 12.5962 1.9989 12.0422 1.9989ZM15.7092 2.90491C15.4662 2.98491 15.2672 3.15691 15.1452 3.40491C14.9012 3.90091 15.0872 4.5049 15.5842 4.7489C15.8512 4.8789 16.0862 5.02591 16.3362 5.18591C16.8022 5.48291 17.4482 5.3389 17.7462 4.8739C18.0442 4.4079 17.8992 3.7959 17.4332 3.4989C17.1192 3.2989 16.7952 3.1309 16.4612 2.9679C16.2132 2.8459 15.9532 2.82591 15.7092 2.90491ZM19.2502 5.37292C18.9962 5.34292 18.7162 5.42192 18.4982 5.59192C18.0632 5.93292 17.9992 6.56392 18.3422 6.99792C18.5252 7.23092 18.7171 7.46492 18.8741 7.71692C19.1661 8.18592 19.7832 8.31993 20.2532 8.02893C20.7242 7.73793 20.8582 7.15491 20.5672 6.68591C20.3712 6.37091 20.1382 6.03992 19.9082 5.74792C19.7372 5.53092 19.5052 5.40392 19.2502 5.37292ZM12.0422 5.99792C11.4892 5.99792 11.0402 6.44592 11.0402 6.99792V11.9969C11.0402 12.2629 11.1651 12.5279 11.3531 12.7159L14.3611 15.7149C14.7531 16.1059 15.3802 16.1059 15.7722 15.7149C16.1632 15.3249 16.1632 14.6689 15.7722 14.2779L13.0452 11.5599V6.99792C13.0452 6.44592 12.5962 5.99792 12.0422 5.99792ZM20.6292 9.02893C20.0882 9.14793 19.7572 9.67688 19.8772 10.2159C19.9412 10.5049 20.0031 10.7959 20.0341 11.0909C20.0921 11.6399 20.5802 12.0239 21.1312 11.9659C21.6812 11.9079 22.0671 11.4219 22.0081 10.8729C21.9691 10.5029 21.9322 10.1399 21.8512 9.77893C21.7322 9.23993 21.1702 8.90993 20.6292 9.02893ZM21.0681 13.0909C20.5301 12.9609 19.9762 13.3039 19.8462 13.8409C19.7762 14.1299 19.6651 14.4069 19.5641 14.6839C19.3741 15.2029 19.6702 15.7449 20.1912 15.9339C20.7112 16.1229 21.2552 15.8909 21.4442 15.3719C21.5712 15.0239 21.7012 14.6709 21.7892 14.3089C21.9192 13.7729 21.6061 13.2209 21.0681 13.0909Z" fill="black"/>
</svg>
