<svg width="24" height="24" viewBox="0 0 24 24" fill="none" xmlns="http://www.w3.org/2000/svg">
<path d="M11.9386 2.19758C10.9216 2.18558 9.92562 2.52158 9.21962 3.22858L2.28163 10.3216C1.98363 10.6266 1.90362 11.0656 2.09462 11.4476L3.00062 13.2596L2.96962 18.9786C2.96962 20.1096 3.87562 21.0096 5.00062 21.0096H8.18863C9.18563 21.0096 10.0006 20.1946 10.0006 19.1976V15.8906C10.0006 14.8516 10.8426 14.0096 11.8816 14.0096H12.1196C13.1586 14.0096 14.0006 14.8516 14.0006 15.8906V19.1976C14.0006 20.1946 14.8156 21.0096 15.8126 21.0096H19.0006C20.1256 21.0096 21.0316 20.1036 21.0316 18.9786L21.0006 13.2596L21.9066 11.4476C22.0996 11.0626 22.0236 10.5956 21.7196 10.2906C21.4596 10.0306 15.3446 3.91559 14.7196 3.29059C13.9946 2.56559 12.9546 2.20858 11.9386 2.19758Z" fill="black"/>
</svg>
