<svg width="24" height="24" viewBox="0 0 24 24" fill="none" xmlns="http://www.w3.org/2000/svg">
<path d="M10.999 1.95316C9.34212 1.95316 7.99912 3.29316 7.99902 4.95316V6.01566H6.99902C6.08452 5.97886 4.68092 6.57626 4.15522 8.04696L2.99902 8.01566C2.44672 8.01566 1.99892 8.46236 1.99902 9.01566C1.99902 9.56896 2.44672 10.0162 2.99902 10.0162H3.99902V11.0162H2.99902C2.44672 11.0162 1.99892 11.4622 1.99902 12.0162C1.99902 12.5692 2.44672 13.0152 2.99902 13.0162H3.99902V14.0162H2.99902C2.44672 14.0162 1.99892 14.4622 1.99902 15.0162C1.99902 15.5692 2.44672 16.0162 2.99902 16.0162H3.99902V17.0162H2.99902C2.44672 17.0162 1.99892 17.4622 1.99902 18.0162C1.99902 18.5692 2.44672 19.0162 2.99902 19.0162H3.99902C3.99902 20.6722 5.34212 22.0162 6.99902 22.0162H13.999C15.6559 22.0162 16.999 20.6722 16.999 19.0162V18.0162L17.999 17.9842C19.6559 17.9842 20.9989 16.6442 20.999 14.9842V4.95316C20.999 3.29326 19.6558 1.95296 17.999 1.95316H10.999ZM17.999 3.95316C18.5513 3.95316 18.9991 4.39986 18.999 4.95316V14.9532C18.999 15.5062 18.5513 15.9532 17.999 15.9532L16.999 15.9842V9.01566C16.999 7.35876 15.6559 6.01566 13.999 6.01566H9.99902V4.98446C9.99902 4.43116 10.4467 3.98436 10.999 3.98446L17.999 3.95316Z" fill="black"/>
</svg>
