<svg width="24" height="24" viewBox="0 0 24 24" fill="none" xmlns="http://www.w3.org/2000/svg">
<path d="M11.8684 2.99086C11.1114 2.99686 10.3384 3.19986 9.74339 3.61586L2.4314 8.67886C1.8544 9.07486 1.8554 9.90486 2.4314 10.3039L4.86839 11.9909L2.4314 13.6789C1.8554 14.0759 1.8564 14.9049 2.4314 15.3039L7.2124 18.6159C7.0384 17.8529 7.1604 17.1429 7.5874 16.4599L4.74339 14.4909L6.5874 13.1789H6.61839C7.51039 13.7989 9.35139 15.0939 9.74339 15.3659C10.0964 15.6059 10.5754 15.7849 11.0084 15.8859L11.0004 17.9909H9.00039L12.0004 20.9909L15.0054 18.0009L13.0004 17.9909L13.0104 15.8479C13.2754 15.7749 13.7094 15.5849 13.9934 15.3969L17.2434 13.2099L19.1814 14.5219L16.3374 16.4289C16.7694 17.0979 16.9284 17.7969 16.7744 18.5539L21.5564 15.3349C22.1484 14.9379 22.1494 14.0739 21.5564 13.6789L19.0564 12.0219L21.5564 10.3349C22.1464 9.93787 22.1474 9.04288 21.5564 8.64688L13.9624 3.58485C13.3654 3.17885 12.6254 2.98486 11.8684 2.99086Z" fill="black"/>
</svg>
