<svg width="24" height="24" viewBox="0 0 24 24" fill="none" xmlns="http://www.w3.org/2000/svg">
<path d="M6.99829 2.92969C4.78929 2.92969 2.99829 4.72069 2.99829 6.92969V16.9297C2.99829 19.1387 4.78929 20.9297 6.99829 20.9297H16.9983C19.2073 20.9297 20.9983 19.1387 20.9983 16.9297V6.92969C20.9983 4.72069 19.2073 2.92969 16.9983 2.92969H6.99829ZM7.99829 6.92969C8.55029 6.92969 8.99829 7.37769 8.99829 7.92969C8.99829 8.48169 8.55029 8.92969 7.99829 8.92969C7.44629 8.92969 6.99829 8.48169 6.99829 7.92969C6.99829 7.37769 7.44629 6.92969 7.99829 6.92969ZM10.9983 6.92969H15.9983C16.5503 6.92969 16.9983 7.37769 16.9983 7.92969C16.9983 8.48169 16.5503 8.92969 15.9983 8.92969H10.9983C10.4463 8.92969 9.99829 8.48169 9.99829 7.92969C9.99829 7.37769 10.4463 6.92969 10.9983 6.92969ZM7.99829 10.9297C8.55029 10.9297 8.99829 11.3777 8.99829 11.9297C8.99829 12.4817 8.55029 12.9297 7.99829 12.9297C7.44629 12.9297 6.99829 12.4817 6.99829 11.9297C6.99829 11.3777 7.44629 10.9297 7.99829 10.9297ZM10.9983 10.9297H15.9983C16.5503 10.9297 16.9983 11.3777 16.9983 11.9297C16.9983 12.4817 16.5503 12.9297 15.9983 12.9297H10.9983C10.4463 12.9297 9.99829 12.4817 9.99829 11.9297C9.99829 11.3777 10.4463 10.9297 10.9983 10.9297ZM7.99829 14.9297C8.55029 14.9297 8.99829 15.3777 8.99829 15.9297C8.99829 16.4817 8.55029 16.9297 7.99829 16.9297C7.44629 16.9297 6.99829 16.4817 6.99829 15.9297C6.99829 15.3777 7.44629 14.9297 7.99829 14.9297ZM10.9983 14.9297H15.9983C16.5503 14.9297 16.9983 15.3777 16.9983 15.9297C16.9983 16.4817 16.5503 16.9297 15.9983 16.9297H10.9983C10.4463 16.9297 9.99829 16.4817 9.99829 15.9297C9.99829 15.3777 10.4463 14.9297 10.9983 14.9297Z" fill="black"/>
</svg>
