<svg width="24" height="24" viewBox="0 0 24 24" fill="none" xmlns="http://www.w3.org/2000/svg">
<path d="M6.0027 4.88293C5.7467 4.88293 5.47971 4.96894 5.28371 5.16394L4.0027 6.44592L3.7217 6.16394C3.3307 5.77394 2.67471 5.77394 2.28371 6.16394C1.89371 6.55494 1.89371 7.21093 2.28371 7.60192L3.28371 8.60192C3.67471 8.99192 4.3307 8.99192 4.7217 8.60192L6.72169 6.60193C7.11169 6.21093 7.11169 5.55494 6.72169 5.16394C6.52569 4.96894 6.2587 4.88293 6.0027 4.88293ZM10.0027 5.88293C9.4507 5.88293 9.0027 6.33093 9.0027 6.88293C9.0027 7.43493 9.4507 7.88293 10.0027 7.88293H21.0027C21.5547 7.88293 22.0027 7.43493 22.0027 6.88293C22.0027 6.33093 21.5547 5.88293 21.0027 5.88293H10.0027ZM6.0027 9.88293C5.7467 9.88293 5.47971 9.96893 5.28371 10.1639L4.0027 11.4459L3.7217 11.1639C3.3307 10.7739 2.67471 10.7739 2.28371 11.1639C1.89371 11.5549 1.89371 12.2109 2.28371 12.6019L3.28371 13.6019C3.67471 13.9919 4.3307 13.9919 4.7217 13.6019L6.72169 11.6019C7.11169 11.2109 7.11169 10.5549 6.72169 10.1639C6.52569 9.96893 6.2587 9.88293 6.0027 9.88293ZM10.0027 10.8829C9.4507 10.8829 9.0027 11.3309 9.0027 11.8829C9.0027 12.4349 9.4507 12.8829 10.0027 12.8829H21.0027C21.5547 12.8829 22.0027 12.4349 22.0027 11.8829C22.0027 11.3309 21.5547 10.8829 21.0027 10.8829H10.0027ZM6.0027 14.8829C5.7467 14.8829 5.47971 14.9689 5.28371 15.1639L4.0027 16.4459L3.7217 16.1639C3.3307 15.7739 2.67471 15.7739 2.28371 16.1639C1.89371 16.5549 1.89371 17.2109 2.28371 17.6019L3.28371 18.6019C3.67471 18.9919 4.3307 18.9919 4.7217 18.6019L6.72169 16.6019C7.11169 16.2109 7.11169 15.5549 6.72169 15.1639C6.52569 14.9689 6.2587 14.8829 6.0027 14.8829ZM10.0027 15.8829C9.4507 15.8829 9.0027 16.3309 9.0027 16.8829C9.0027 17.4349 9.4507 17.8829 10.0027 17.8829H21.0027C21.5547 17.8829 22.0027 17.4349 22.0027 16.8829C22.0027 16.3309 21.5547 15.8829 21.0027 15.8829H10.0027Z" fill="black"/>
</svg>
