<svg version="1.1"  xmlns="http://www.w3.org/2000/svg" xmlns:xlink="http://www.w3.org/1999/xlink" x="0px"
	 y="0px" width="28px" height="28px" viewBox="0 0 28 28" >
<g>
	<path fill-rule="evenodd" clip-rule="evenodd" d="M2.722,21.315c0.045-0.39,0.17-0.768,0.387-1.11
		c0.694-1.103,7.708-12.331,7.828-12.537c0.234-0.402,0.776-0.6,1.261-0.291c1.026,0.653,4.395,2.745,5.042,3.156
		c0.128,0.081,0.26,0.174,0.349,0.292c0.232,0.311,0.233,0.649,0.038,0.981c-0.177,0.3-7.301,11.692-7.837,12.561
		c-0.365,0.593-0.879,0.981-1.545,1.177c-1.265,0.369-2.529,0.74-3.792,1.113c-0.33,0.097-0.622,0.055-0.861-0.211
		c-0.106-0.118-0.161-0.26-0.187-0.413c-0.156-0.913-0.311-1.826-0.465-2.739c-0.063-0.375-0.125-0.755-0.19-1.132
		C2.701,21.878,2.69,21.594,2.722,21.315z"/>
	<path fill-rule="evenodd" clip-rule="evenodd" d="M15.764,1.497c0.286,0.185,4.071,2.532,5.125,3.188
		c0.199,0.124,0.371,0.269,0.46,0.495c0.11,0.284,0.07,0.55-0.086,0.804c-0.296,0.478-0.593,0.954-0.89,1.43
		c-0.243,0.39-0.487,0.779-0.729,1.169c-0.213,0.342-0.51,0.526-0.918,0.46c-0.138-0.022-0.276-0.087-0.396-0.161
		c-0.761-0.467-1.517-0.942-2.274-1.415c-0.888-0.554-1.776-1.107-2.664-1.661c-0.051-0.032-0.101-0.064-0.151-0.095
		c-0.477-0.299-0.563-0.843-0.292-1.263c0.245-0.378,0.478-0.764,0.717-1.147c0.271-0.433,0.741-1.108,0.998-1.549
		C14.828,1.47,15.479,1.312,15.764,1.497z"/>
	<circle fill-rule="evenodd" clip-rule="evenodd" cx="13.977" cy="25.178" r="1.75"/>
	<circle fill-rule="evenodd" clip-rule="evenodd" cx="18.935" cy="25.178" r="1.75"/>
	<circle fill-rule="evenodd" clip-rule="evenodd" cx="23.892" cy="25.178" r="1.75"/>
</g>
</svg>
