<svg width="24" height="24" viewBox="0 0 24 24" fill="none" xmlns="http://www.w3.org/2000/svg">
<path d="M8.51416 2.92981C6.02916 2.92981 4.01416 4.94451 4.01416 7.42981C4.01416 9.91511 6.02916 11.9298 8.51416 11.9298C10.9992 11.9298 13.0142 9.91511 13.0142 7.42981C13.0142 4.94451 10.9992 2.92981 8.51416 2.92981ZM16.0142 6.92981C15.4622 6.92981 15.0142 7.37751 15.0142 7.92981C15.0142 8.48211 15.4622 8.92981 16.0142 8.92981H21.0142C21.5662 8.92981 22.0142 8.48211 22.0142 7.92981C22.0142 7.37751 21.5662 6.92981 21.0142 6.92981H16.0142ZM15.0142 10.9298C14.4622 10.9298 14.0142 11.3775 14.0142 11.9298C14.0142 12.4821 14.4622 12.9298 15.0142 12.9298H21.0142C21.5662 12.9298 22.0142 12.4821 22.0142 11.9298C22.0142 11.3775 21.5662 10.9298 21.0142 10.9298H15.0142ZM5.07616 13.2736C3.24216 14.0304 2.01416 15.8859 2.01416 17.9298V19.9298C2.01416 20.4821 2.46216 20.9298 3.01416 20.9298H14.0142C14.5662 20.9298 15.0142 20.4821 15.0142 19.9298V17.9298C15.0142 15.934 13.7792 14.1235 11.9522 13.336C11.6942 13.2252 11.3952 13.2218 11.1392 13.336C10.2542 13.7326 9.39216 13.9296 8.51416 13.9298C7.63916 13.9298 6.77415 13.7218 5.85815 13.3048C5.60615 13.1902 5.33216 13.1683 5.07616 13.2736ZM18.0142 14.9298C17.4622 14.9298 17.0142 15.3775 17.0142 15.9298C17.0142 16.4821 17.4622 16.9298 18.0142 16.9298H21.0142C21.5662 16.9298 22.0142 16.4821 22.0142 15.9298C22.0142 15.3775 21.5662 14.9298 21.0142 14.9298H18.0142Z" fill="black"/>
</svg>
