<svg width="24" height="24" viewBox="0 0 24 24" fill="none" xmlns="http://www.w3.org/2000/svg">
<path d="M9.01416 2.92981C7.90916 2.92981 7.01416 3.82481 7.01416 4.92981V6.92981H5.01416C3.35716 6.92981 2.01416 8.27281 2.01416 9.92981V14.9298C2.01416 16.5868 3.35716 17.9298 5.01416 17.9298H7.01416V18.9298C7.01416 20.0348 7.90916 20.9298 9.01416 20.9298H15.0142C16.1192 20.9298 17.0142 20.0348 17.0142 18.9298V17.9298H19.0142C20.6712 17.9298 22.0142 16.5868 22.0142 14.9298V9.92981C22.0142 8.27281 20.6712 6.92981 19.0142 6.92981H17.0142V4.92981C17.0142 3.82481 16.1192 2.92981 15.0142 2.92981H9.01416ZM9.01416 4.92981H15.0142V6.92981H9.01416V4.92981ZM5.01416 8.92981C5.56616 8.92981 6.01416 9.37781 6.01416 9.92981C6.01416 10.4818 5.56616 10.9298 5.01416 10.9298C4.46216 10.9298 4.01416 10.4818 4.01416 9.92981C4.01416 9.37781 4.46216 8.92981 5.01416 8.92981ZM9.01416 13.9298H15.0142V18.9298H9.01416V13.9298Z" fill="black"/>
</svg>
