<svg xmlns="http://www.w3.org/2000/svg" width="24" height="24" fill="#000"><path d="M20.334 7.327H17.98V5.615a1.95 1.95 0 0 0-1.951-1.95H7.972a1.95 1.95 0 0 0-1.952 1.95V9.43L1.69 7.884v1.444l4.33 1.547v1.946H3.665a2.32 2.32 0 0 0-2.318 2.317v2.879a2.32 2.32 0 0 0 2.318 2.317h16.669a2.32 2.32 0 0 0 2.319-2.317V9.645a2.32 2.32 0 0 0-2.319-2.318zm-4.896.006H8.563V6.016h6.875v1.317zm3.979 10.855a1.69 1.69 0 0 1-1.688-1.687 1.69 1.69 0 0 1 1.688-1.687c.931 0 1.686.755 1.686 1.687s-.755 1.687-1.686 1.687z"/></svg>