<svg width="24" height="24" viewBox="0 0 24 24" fill="none" xmlns="http://www.w3.org/2000/svg">
<path d="M6.99072 2.92969C4.78162 2.92969 2.99072 4.72069 2.99072 6.92969V16.9297C2.99072 19.1387 4.78162 20.9297 6.99072 20.9297H16.9907C19.1998 20.9297 20.9907 19.1387 20.9907 16.9297V6.92969C20.9907 4.72069 19.1998 2.92969 16.9907 2.92969H6.99072ZM11.9282 6.92969C13.5834 6.92969 14.9223 8.27369 14.9282 9.92969C14.9322 11.0387 14.4118 11.9737 13.5532 12.8357C13.3735 13.0167 13.2 13.1907 12.9907 13.3677C12.8908 13.4517 12.6143 13.6547 12.5845 13.6797C12.1622 14.0357 11.5342 14.0087 11.1782 13.5857C10.8222 13.1637 10.8809 12.5047 11.3032 12.1487C11.3494 12.1097 11.5943 11.9067 11.6782 11.8357C11.8461 11.6947 12.0131 11.5637 12.1469 11.4297C12.6665 10.9077 12.9299 10.4077 12.9282 9.92969C12.9262 9.37369 12.4794 8.92969 11.9282 8.92969C11.4716 8.92969 11.0742 9.24569 10.9595 9.67969C10.8184 10.2137 10.2747 10.5397 9.74072 10.3987C9.20672 10.2577 8.88092 9.68268 9.02192 9.14868C9.36722 7.84168 10.5583 6.92969 11.9282 6.92969ZM11.9282 14.9297C12.4805 14.9297 12.9282 15.3777 12.9282 15.9297C12.9282 16.4817 12.4805 16.9297 11.9282 16.9297C11.3759 16.9297 10.9282 16.4817 10.9282 15.9297C10.9282 15.3777 11.3759 14.9297 11.9282 14.9297Z" fill="black"/>
</svg>
