<svg width="24" height="24" viewBox="0 0 24 24" fill="none" xmlns="http://www.w3.org/2000/svg">
<path d="M5.4358 2.05888C4.77081 1.72587 3.9978 2.22188 3.9978 2.96488V19.9649C3.9978 20.3439 4.2218 20.7019 4.5598 20.8709L6.5598 21.8709C6.8418 22.0119 7.1538 22.0119 7.4358 21.8709L8.9978 21.0899L10.5598 21.8709C10.8418 22.0119 11.1538 22.0119 11.4358 21.8709L12.9978 21.0899L14.5598 21.8709C14.8418 22.0119 15.1538 22.0119 15.4358 21.8709L16.9978 21.0899L18.5598 21.8709C19.2248 22.2039 19.9978 21.7079 19.9978 20.9649V3.96488C19.9978 3.58588 19.7738 3.22788 19.4358 3.05888L17.4358 2.05888C17.1538 1.91787 16.8418 1.91787 16.5598 2.05888L14.9978 2.83988L13.4358 2.05888C13.1538 1.91787 12.8418 1.91787 12.5598 2.05888L10.9978 2.83988L9.4358 2.05888C9.1538 1.91787 8.84179 1.91787 8.55979 2.05888C8.3648 2.15588 7.5268 2.57488 6.9978 2.83988L5.4358 2.05888ZM7.9978 6.96489H11.9978C12.5498 6.96489 12.9978 7.41289 12.9978 7.96489C12.9978 8.51689 12.5498 8.96489 11.9978 8.96489H7.9978C7.4458 8.96489 6.9978 8.51689 6.9978 7.96489C6.9978 7.41289 7.4458 6.96489 7.9978 6.96489ZM15.9978 6.96489C16.5498 6.96489 16.9978 7.41289 16.9978 7.96489C16.9978 8.51689 16.5498 8.96489 15.9978 8.96489C15.4458 8.96489 14.9978 8.51689 14.9978 7.96489C14.9978 7.41289 15.4458 6.96489 15.9978 6.96489ZM7.9978 10.9649H11.9978C12.5498 10.9649 12.9978 11.4129 12.9978 11.9649C12.9978 12.5169 12.5498 12.9649 11.9978 12.9649H7.9978C7.4458 12.9649 6.9978 12.5169 6.9978 11.9649C6.9978 11.4129 7.4458 10.9649 7.9978 10.9649ZM15.9978 10.9649C16.5498 10.9649 16.9978 11.4129 16.9978 11.9649C16.9978 12.5169 16.5498 12.9649 15.9978 12.9649C15.4458 12.9649 14.9978 12.5169 14.9978 11.9649C14.9978 11.4129 15.4458 10.9649 15.9978 10.9649ZM7.9978 14.9649H11.9978C12.5498 14.9649 12.9978 15.4129 12.9978 15.9649C12.9978 16.5169 12.5498 16.9649 11.9978 16.9649H7.9978C7.4458 16.9649 6.9978 16.5169 6.9978 15.9649C6.9978 15.4129 7.4458 14.9649 7.9978 14.9649ZM15.9978 14.9649C16.5498 14.9649 16.9978 15.4129 16.9978 15.9649C16.9978 16.5169 16.5498 16.9649 15.9978 16.9649C15.4458 16.9649 14.9978 16.5169 14.9978 15.9649C14.9978 15.4129 15.4458 14.9649 15.9978 14.9649Z" fill="black"/>
</svg>
