<svg version="1.1" xmlns="http://www.w3.org/2000/svg" xmlns:xlink="http://www.w3.org/1999/xlink" x="0px" y="0px"
	 viewBox="0 0 24 24" style="enable-background:new 0 0 24 24;" xml:space="preserve">
<path d="M23.5,12h-3.1c0-5.1-4.2-9.3-9.3-9.3C6,2.7,1.8,6.9,1.8,12c0,5.1,4.2,9.3,9.3,9.3c1.7,0,3.3-0.4,4.7-1.3
	c0.5-0.3,0.6-0.9,0.4-1.4c-0.3-0.5-0.9-0.6-1.4-0.4c-1.1,0.6-2.3,1-3.6,1c-4,0-7.2-3.2-7.2-7.2c0-4,3.2-7.2,7.2-7.2
	c4,0,7.2,3.2,7.2,7.2h-3.1l4.1,4.1L23.5,12z"/>
<path d="M10.2,17.5c-0.3,0-0.5-0.2-0.5-0.5v-0.8c-0.9-0.1-1.6-0.5-2.2-1c-0.2-0.2-0.2-0.5,0-0.8l0.4-0.5c0.1-0.1,0.3-0.2,0.4-0.2
	c0.1,0,0.2,0,0.3,0.1c0.3,0.2,0.6,0.4,0.9,0.5c0.2,0.1,0.6,0.1,1,0.1c0.3,0,0.6,0,0.8-0.1c0.2-0.1,0.3-0.2,0.4-0.3
	c0.1-0.1,0.1-0.2,0.1-0.3v-0.2c0-0.2-0.1-0.3-0.1-0.4c-0.1-0.1-0.3-0.2-0.9-0.4l-1.1-0.3c-0.7-0.2-1.2-0.5-1.6-0.9
	c-0.4-0.4-0.6-0.9-0.6-1.4V9.9c0-0.4,0.1-0.7,0.3-1.1c0.2-0.3,0.5-0.6,0.9-0.8c0.3-0.1,0.5-0.2,0.8-0.3V7c0-0.3,0.2-0.5,0.5-0.5H11
	c0.3,0,0.5,0.2,0.5,0.5v0.7c0.8,0.1,1.5,0.5,2.1,1c0.1,0.1,0.2,0.2,0.2,0.4c0,0.1,0,0.3-0.1,0.4L13.2,10c-0.1,0.1-0.3,0.2-0.4,0.2
	c-0.1,0-0.3,0-0.4-0.1c-0.3-0.2-0.5-0.4-0.8-0.5c-0.3-0.1-0.6-0.1-0.9-0.1c-0.3,0-0.6,0-0.8,0.1C9.8,9.6,9.7,9.7,9.6,9.7
	C9.6,9.9,9.6,9.9,9.6,9.9v0.2c0,0,0,0.1,0.1,0.2c0.1,0.1,0.4,0.2,0.9,0.4l1,0.3c0.7,0.2,1.2,0.5,1.6,0.8c0.4,0.4,0.7,0.9,0.7,1.6
	v0.3c0,0.4-0.1,0.8-0.4,1.2c-0.2,0.4-0.6,0.7-1,0.9c-0.3,0.1-0.6,0.3-1,0.3V17c0,0.3-0.2,0.5-0.5,0.5H10.2z"/>
</svg>
