<svg width="24" height="24" viewBox="0 0 24 24" fill="none" xmlns="http://www.w3.org/2000/svg">

<path d="M12.0068 2.99072C9.95284 2.99072 7.99084 3.67973 6.41284 4.92873C5.97984 5.27073 5.91384 5.90172 6.25684 6.33472C6.59984 6.76772 7.22984 6.83372 7.66284 6.49072C8.88984 5.51972 10.4078 4.99072 12.0068 4.99072C15.8728 4.99072 19.0068 8.12472 19.0068 11.9907H17.0068L20.0068 15.9907L23.0068 11.9907H21.0068C21.0068 7.01972 16.9778 2.99072 12.0068 2.99072ZM4.00684 7.99072L1.00684 11.9907H3.00684C3.00684 16.9617 7.03584 20.9907 12.0068 20.9907C14.0618 20.9907 16.0228 20.3027 17.6008 19.0527C18.0338 18.7107 18.0998 18.0797 17.7568 17.6467C17.4138 17.2137 16.7838 17.1477 16.3508 17.4907C15.1228 18.4627 13.6068 18.9907 12.0068 18.9907C8.14084 18.9907 5.00684 15.8567 5.00684 11.9907H7.00684L4.00684 7.99072Z" fill="#3498db"/>
</svg>
