<svg width="24" height="24" viewBox="0 0 24 24" fill="none" xmlns="http://www.w3.org/2000/svg">
<path d="M11.9907 1.95312C11.4387 1.95312 10.9907 2.40113 10.9907 2.95312V11.9531C10.9907 12.5051 11.4387 12.9531 11.9907 12.9531C12.5427 12.9531 12.9907 12.5051 12.9907 11.9531V2.95312C12.9907 2.40113 12.5427 1.95312 11.9907 1.95312ZM7.11573 4.70312C6.86173 4.67412 6.61273 4.75012 6.39673 4.92212C4.26673 6.61812 2.99072 9.17613 2.99072 11.9531C2.99072 16.9241 7.01973 20.9531 11.9907 20.9531C16.9617 20.9531 20.9907 16.9241 20.9907 11.9531C20.9907 9.19213 19.7257 6.61912 17.6157 4.92212C17.1857 4.57612 16.5557 4.64812 16.2097 5.07812C15.8637 5.50813 15.9357 6.13813 16.3657 6.48413C18.0087 7.80613 18.9907 9.80412 18.9907 11.9531C18.9907 15.8191 15.8567 18.9531 11.9907 18.9531C8.12473 18.9531 4.99072 15.8191 4.99072 11.9531C4.99072 9.79212 5.98773 7.80513 7.64673 6.48413C8.07873 6.14013 8.14774 5.51012 7.80274 5.07812C7.63074 4.86212 7.36973 4.73213 7.11573 4.70312Z" fill="#3498db"/>
</svg>
