<svg width="24" height="24" viewBox="0 0 24 24" fill="none" xmlns="http://www.w3.org/2000/svg">
<path d="M5.99853 2.99075C4.24453 2.99175 3.00854 4.21775 2.99854 5.99075V7.99075C2.99954 8.03075 2.99854 16.9908 2.99854 16.9908C2.99854 19.1998 4.78953 20.9908 6.99853 20.9908H16.9985C19.2075 20.9908 20.9985 19.1998 20.9985 16.9908V10.9908C20.9975 10.9058 20.9985 9.14876 20.9985 9.02176C21.0055 7.28076 19.7205 5.99775 17.9985 5.99075C17.7265 5.98975 17.0515 5.98975 17.0615 5.99075C16.1385 5.98775 15.9255 5.80376 15.3425 4.92876C14.4255 3.55376 13.6535 2.99075 11.9985 2.99075H5.99853ZM5.99853 4.99075H11.9985C12.8435 4.99075 13.0715 5.17775 13.6545 6.05275C14.5715 7.42775 15.3435 7.99075 16.9985 7.99075C16.9725 7.99175 17.7225 7.98975 17.9985 7.99075C18.6225 7.99375 19.0015 8.39176 18.9985 9.02176C18.9985 9.08576 18.9975 9.52675 18.9985 9.99075C18.3585 9.99075 18.1985 9.99075 14.9985 9.99075C14.1535 9.99075 13.9255 9.80376 13.3425 8.92876C12.4255 7.55376 11.6535 6.99075 9.99852 6.99075C9.11353 6.99075 6.43453 6.99075 4.99853 6.99075V5.99075C5.00253 5.32675 5.34053 4.99075 5.99853 4.99075Z" fill="#ffffff"/>
</svg>
