<svg width="24" height="24" viewBox="0 0 24 24" fill="none" xmlns="http://www.w3.org/2000/svg">
<path d="M11.9985 1.95312C11.4465 1.95312 10.9985 2.40113 10.9985 2.95312C10.9985 3.50513 11.4465 3.95312 11.9985 3.95312C12.5505 3.95312 12.9985 3.50513 12.9985 2.95312C12.9985 2.40113 12.5505 1.95312 11.9985 1.95312ZM5.99854 4.95312C5.44654 4.95312 4.99854 5.40112 4.99854 5.95312C4.99854 6.50513 5.44654 6.95312 5.99854 6.95312C6.55054 6.95312 6.99854 6.50513 6.99854 5.95312C6.99854 5.40112 6.55054 4.95312 5.99854 4.95312ZM17.9985 4.95312C17.4465 4.95312 16.9985 5.40112 16.9985 5.95312C16.9985 6.50513 17.4465 6.95312 17.9985 6.95312C18.5505 6.95312 18.9985 6.50513 18.9985 5.95312C18.9985 5.40112 18.5505 4.95312 17.9985 4.95312ZM11.9985 5.95312C9.23754 5.95312 6.99854 8.19213 6.99854 10.9531C6.99854 12.0701 7.37954 13.0891 7.99854 13.9221C8.90954 15.1471 8.99854 15.9531 8.99854 16.9531C9.99854 16.9531 13.9985 16.9531 14.9985 16.9531C14.9985 15.9531 15.5265 14.5791 15.9985 13.9531C16.6295 13.1161 16.9985 12.0821 16.9985 10.9531C16.9985 8.19213 14.7595 5.95312 11.9985 5.95312ZM3.99854 10.9531C3.44654 10.9531 2.99854 11.4011 2.99854 11.9531C2.99854 12.5051 3.44654 12.9531 3.99854 12.9531C4.55054 12.9531 4.99854 12.5051 4.99854 11.9531C4.99854 11.4011 4.55054 10.9531 3.99854 10.9531ZM19.9985 10.9531C19.4465 10.9531 18.9985 11.4011 18.9985 11.9531C18.9985 12.5051 19.4465 12.9531 19.9985 12.9531C20.5505 12.9531 20.9985 12.5051 20.9985 11.9531C20.9985 11.4011 20.5505 10.9531 19.9985 10.9531ZM8.99854 18.9531C8.99854 20.6101 10.3415 21.9531 11.9985 21.9531C13.6555 21.9531 14.9985 20.6101 14.9985 18.9531H8.99854Z" fill="#ffffff"/>
</svg>
