<svg width="24" height="24" viewBox="0 0 24 24" fill="none" xmlns="http://www.w3.org/2000/svg">
<path d="M8.96802 2.45553C7.55002 2.90453 6.32702 3.63954 5.24902 4.64254C4.91602 4.95354 4.81403 5.46054 5.03003 5.86154C5.83103 7.34254 4.99301 8.92654 3.18701 9.01754C2.74401 9.04054 2.35302 9.36753 2.24902 9.79853C2.07002 10.5435 1.99902 11.1675 1.99902 11.9865C1.99902 12.6735 2.07302 13.4505 2.21802 14.1425C2.30802 14.5745 2.68402 14.8855 3.12402 14.9245C4.94202 15.0815 5.84203 16.4675 5.03003 18.2365C4.85003 18.6295 4.93202 19.0995 5.24902 19.3925C6.31102 20.3755 7.53102 21.0675 8.96802 21.5175C9.37802 21.6465 9.84102 21.4915 10.093 21.1425C11.205 19.6045 12.818 19.5985 13.874 21.1425C14.123 21.5065 14.579 21.6815 14.999 21.5485C16.386 21.1125 17.678 20.3695 18.749 19.3925C19.079 19.0925 19.166 18.6055 18.968 18.2055C18.136 16.5265 19.093 14.9845 20.811 14.9555C21.267 14.9475 21.673 14.6475 21.78 14.2055C21.953 13.4885 21.999 12.8635 21.999 11.9865C21.999 11.2325 21.91 10.4895 21.749 9.76754C21.647 9.31154 21.248 8.98753 20.78 8.98653C19.089 8.98353 18.141 7.32154 18.968 5.86154C19.198 5.45454 19.126 4.95654 18.78 4.64254C17.69 3.65254 16.361 2.87953 14.968 2.45553C14.54 2.32553 14.085 2.48554 13.843 2.86154C12.877 4.36154 11.073 4.38854 10.124 2.89254C9.88102 2.50954 9.40002 2.31753 8.96802 2.45553ZM11.999 7.98654C14.208 7.98654 15.999 9.77753 15.999 11.9865C15.999 14.1955 14.208 15.9865 11.999 15.9865C9.79002 15.9865 7.99902 14.1955 7.99902 11.9865C7.99902 9.77753 9.79002 7.98654 11.999 7.98654Z" fill="#ffffff"/>
</svg>
