<svg width="24" height="24" viewBox="0 0 24 24" fill="none" xmlns="http://www.w3.org/2000/svg">
<path d="M6.99853 2.99072C6.73353 2.99072 6.46754 3.08473 6.27954 3.27173L3.27954 6.27173C3.08454 6.46773 2.99854 6.72872 2.99854 6.99072V10.9907C2.99854 12.0957 3.89353 12.9907 4.99853 12.9907H18.9985C20.1035 12.9907 20.9985 12.0957 20.9985 10.9907V6.99072C20.9985 6.72872 20.9125 6.46673 20.7175 6.27173L17.7175 3.27173C17.5295 3.08473 17.2635 2.99072 16.9985 2.99072H6.99853ZM7.43652 4.99072H16.5605L18.5605 6.99072H13.9985C13.9985 8.09572 13.1035 8.99072 11.9985 8.99072C10.8935 8.99072 9.99852 8.09572 9.99852 6.99072H5.43652L7.43652 4.99072ZM2.99854 14.9907V18.9907C2.99854 20.0957 3.89353 20.9907 4.99853 20.9907H18.9985C20.1035 20.9907 20.9985 20.0957 20.9985 18.9907V14.9907H13.9985C13.9985 16.0957 13.1035 16.9907 11.9985 16.9907C10.8935 16.9907 9.99852 16.0957 9.99852 14.9907H2.99854Z" fill="#ffffff"/>
</svg>
