<svg xmlns="http://www.w3.org/2000/svg" width="24" height="24" fill="#fff"><path d="M22.564 9.073v-.805a2.64 2.64 0 0 0-2.641-2.641h-3.51V3.866a1.76 1.76 0 0 0-1.761-1.761H9.371A1.76 1.76 0 0 0 7.61 3.866v1.761H4.076a2.64 2.64 0 0 0-2.641 2.641v.805c0 1.423 1.127 2.575 2.536 2.63v8.235h-.394c-.93 0-1.684.754-1.684 1.684v.272h20.215v-.272c0-.93-.755-1.684-1.685-1.684h-.395v-8.234c1.41-.056 2.536-1.207 2.536-2.631zM9.371 3.866h5.282v1.761H9.371V3.866zm0 7.924h5.282v5.136H9.371V11.79zM3.196 8.268a.88.88 0 1 1 1.761 0 .88.88 0 1 1-1.761 0zm3.327 11.67v-8.224H7.61v5.211a1.76 1.76 0 0 0 1.761 1.762h5.282a1.76 1.76 0 0 0 1.761-1.762v-5.211h1.063v8.224H6.523z"/></svg>