<svg width="24" height="24" viewBox="0 0 24 24" fill="none" xmlns="http://www.w3.org/2000/svg">
<path d="M4.9989 3.90637C3.3419 3.90637 1.9989 5.24947 1.9989 6.90637V16.9064C1.9989 18.9064 2.9989 19.9064 4.9989 19.9064H18.9989C20.9989 19.9064 21.9989 18.9064 21.9989 16.9064V8.90637C21.9989 8.35407 21.5509 7.90637 20.9989 7.90637H19.9989V4.90637C19.9989 4.35407 19.5509 3.90637 18.9989 3.90637H4.9989ZM4.9989 5.90637H17.9989V7.90637H4.9989C4.4469 7.90637 3.9989 7.45867 3.9989 6.90637C3.9989 6.35407 4.4469 5.90637 4.9989 5.90637ZM16.9989 11.9064C17.5509 11.9064 17.9989 12.3541 17.9989 12.9064C17.9989 13.4587 17.5509 13.9064 16.9989 13.9064C16.4469 13.9064 15.9989 13.4587 15.9989 12.9064C15.9989 12.3541 16.4469 11.9064 16.9989 11.9064Z" fill="white"/>
</svg>
