<svg width="24" height="24" viewBox="0 0 24 24" fill="none" xmlns="http://www.w3.org/2000/svg">
<path d="M3.97656 4.99731C2.31956 4.99731 0.976562 6.34041 0.976562 7.99731V15.9973C0.976562 17.6543 2.31956 18.9973 3.97656 18.9973H19.9766C21.6336 18.9973 22.9766 17.6543 22.9766 15.9973V7.99731C22.9766 6.34041 21.6336 4.99731 19.9766 4.99731H3.97656ZM3.97656 6.99731H5.97656C6.52856 6.99731 6.97656 7.44501 6.97656 7.99731C6.97656 8.54961 6.52856 8.99731 5.97656 8.99731H4.97656C4.97656 9.54961 4.52856 9.99731 3.97656 9.99731C3.42456 9.99731 2.97656 9.54961 2.97656 8.99731V7.99731C2.97656 7.44501 3.42456 6.99731 3.97656 6.99731ZM17.9766 6.99731H19.9766C20.5286 6.99731 20.9766 7.44501 20.9766 7.99731V8.99731C20.9766 9.54961 20.5286 9.99731 19.9766 9.99731C19.4246 9.99731 18.9766 9.54961 18.9766 8.99731H17.9766C17.4246 8.99731 16.9766 8.54961 16.9766 7.99731C16.9766 7.44501 17.4246 6.99731 17.9766 6.99731ZM11.9766 8.99731C13.6336 8.99731 14.9766 10.3403 14.9766 11.9973C14.9766 13.6543 13.6336 14.9973 11.9766 14.9973C10.3196 14.9973 8.97656 13.6543 8.97656 11.9973C8.97656 10.3403 10.3196 8.99731 11.9766 8.99731ZM11.9766 10.9973C11.4246 10.9973 10.9766 11.4453 10.9766 11.9973C10.9766 12.5493 11.4246 12.9973 11.9766 12.9973C12.5286 12.9973 12.9766 12.5493 12.9766 11.9973C12.9766 11.4453 12.5286 10.9973 11.9766 10.9973ZM3.97656 13.9973C4.52856 13.9973 4.97656 14.4453 4.97656 14.9973H5.97656C6.52856 14.9973 6.97656 15.4453 6.97656 15.9973C6.97656 16.5493 6.52856 16.9973 5.97656 16.9973H3.97656C3.42456 16.9973 2.97656 16.5493 2.97656 15.9973V14.9973C2.97656 14.4453 3.42456 13.9973 3.97656 13.9973ZM19.9766 13.9973C20.5286 13.9973 20.9766 14.4453 20.9766 14.9973V15.9973C20.9766 16.5493 20.5286 16.9973 19.9766 16.9973H17.9766C17.4246 16.9973 16.9766 16.5493 16.9766 15.9973C16.9766 15.4453 17.4246 14.9973 17.9766 14.9973H18.9766C18.9766 14.4453 19.4246 13.9973 19.9766 13.9973Z" fill="#ffffff"/>
</svg>
