<svg width="24" height="24" viewBox="0 0 24 24" fill="none" xmlns="http://www.w3.org/2000/svg">
<path d="M8.02066 3.00606C6.37906 3.01906 5.00136 4.37406 5.01426 6.01407L5.00506 6.18509C3.46486 6.78609 3.13906 8.02206 2.98296 8.88706L2.13136 15.0101C2.13136 15.0101 2.01346 16.0791 2.01416 16.5081C2.01826 19.0101 4.02896 21.0061 6.51436 21.0061C8.99966 21.0061 11.0145 18.9921 11.0145 16.5081C11.0145 16.3871 11.0145 16.0691 11.0145 16.0091C11.0145 15.5371 11.0145 13.5331 11.0145 13.0101C11.0145 12.4581 11.4622 12.0111 12.0145 12.0111C12.5668 12.0111 13.0146 12.4581 13.0146 13.0101C13.0146 13.5331 13.0146 15.5371 13.0146 16.0091C13.0146 16.0691 13.0146 16.3871 13.0146 16.5081C13.0146 18.9921 15.0294 21.0061 17.5147 21.0061C20.0001 21.0061 22.0126 19.0251 22.0149 16.5081C22.0152 16.1101 21.8962 15.0231 21.8962 15.0231L21.0461 8.85605C21.0214 8.57605 20.9246 8.15005 20.7023 7.70004C20.6352 7.56504 20.57 7.44908 20.4836 7.32608C20.1104 6.79408 19.5949 6.39908 19.021 6.19308L19.0148 6.01407C19.0277 4.39506 17.6618 3.02608 16.0203 3.01308C14.4555 3.00108 13.0212 4.32607 13.0084 6.03207L11.0175 6.01608C11.0121 4.28908 9.58536 2.99406 8.02066 3.00606ZM6.51436 14.0101C7.89506 14.0101 9.01436 15.1281 9.01436 16.5081C9.01436 17.8881 7.89506 19.0071 6.51436 19.0071C5.13356 19.0071 4.01426 17.8881 4.01426 16.5081C4.01426 15.1281 5.13356 14.0101 6.51436 14.0101ZM17.5147 14.0101C18.8955 14.0101 20.0148 15.1281 20.0148 16.5081C20.0148 17.8881 18.8955 19.0071 17.5147 19.0071C16.134 19.0071 15.0146 17.8881 15.0146 16.5081C15.0146 15.1281 16.134 14.0101 17.5147 14.0101Z" fill="#ffffff"/>
</svg>
