<svg width="24" height="24" viewBox="0 0 24 24" fill="none" xmlns="http://www.w3.org/2000/svg">
<path d="M13.0938 1.95328C12.7961 1.92428 9.00004 5.94828 9.00004 5.94828C6.00004 8.94828 10 9.94829 7.00004 12.9533L3.98854 15.9653L3.00364 16.9503C2.00004 17.9533 2.00004 19.9533 3.00004 20.9533C4.00004 21.9533 6.00004 21.9533 7.00004 20.9533C8.00004 19.9533 7.37864 18.5743 8.00004 17.9533C9.00004 16.9533 10 17.9533 11 16.9533C14.0004 13.9533 15 17.9533 18 14.9533C18 14.9533 22.0291 11.1573 22 10.8593C21.5378 6.11929 17.834 2.41528 13.0938 1.95328ZM15 7.95328C15.256 7.95328 15.5235 8.03929 15.7188 8.23429C16.1093 8.62529 16.1093 9.28128 15.7188 9.67228C15.3283 10.0623 14.6718 10.0623 14.2813 9.67228C13.8908 9.28128 13.8908 8.62529 14.2813 8.23429C14.4766 8.03929 14.7441 7.95328 15 7.95328Z" fill="#ffffff"/>
</svg>
